<mxfile host="Electron" modified="2024-01-14T12:34:25.377Z" agent="Mozilla/5.0 (Windows NT 10.0; Win64; x64) AppleWebKit/537.36 (KHTML, like Gecko) draw.io/21.1.2 Chrome/106.0.5249.199 Electron/21.4.3 Safari/537.36" etag="QYO8-WH_NlGIaSRYz4M1" version="21.1.2" type="device">
  <diagram name="Page-1" id="Pg1XpjBiWAMOqzFmVkYa">
    <mxGraphModel dx="2880" dy="1171" grid="1" gridSize="10" guides="1" tooltips="1" connect="1" arrows="1" fold="1" page="1" pageScale="1" pageWidth="1169" pageHeight="827" math="0" shadow="0">
      <root>
        <mxCell id="0" />
        <mxCell id="1" parent="0" />
        <mxCell id="GWNYYibfc6u7Uzu7YpZk-137" value="" style="whiteSpace=wrap;html=1;fillColor=none;dashed=1;imageAspect=1;" vertex="1" parent="1">
          <mxGeometry x="-260" y="64" width="600" height="853" as="geometry" />
        </mxCell>
        <mxCell id="GWNYYibfc6u7Uzu7YpZk-65" style="edgeStyle=orthogonalEdgeStyle;rounded=0;orthogonalLoop=1;jettySize=auto;html=1;exitX=0.5;exitY=1;exitDx=0;exitDy=0;exitPerimeter=0;entryX=0.5;entryY=0;entryDx=0;entryDy=0;entryPerimeter=0;" edge="1" parent="1" source="GWNYYibfc6u7Uzu7YpZk-63" target="GWNYYibfc6u7Uzu7YpZk-64">
          <mxGeometry relative="1" as="geometry" />
        </mxCell>
        <mxCell id="GWNYYibfc6u7Uzu7YpZk-63" value="Client&lt;br&gt;Start" style="strokeWidth=2;html=1;shape=mxgraph.flowchart.start_1;whiteSpace=wrap;" vertex="1" parent="1">
          <mxGeometry x="-162.5" y="87" width="160" height="60" as="geometry" />
        </mxCell>
        <mxCell id="GWNYYibfc6u7Uzu7YpZk-67" style="edgeStyle=orthogonalEdgeStyle;rounded=0;orthogonalLoop=1;jettySize=auto;html=1;exitX=0.5;exitY=1;exitDx=0;exitDy=0;exitPerimeter=0;entryX=0.5;entryY=0;entryDx=0;entryDy=0;entryPerimeter=0;" edge="1" parent="1" source="GWNYYibfc6u7Uzu7YpZk-64" target="GWNYYibfc6u7Uzu7YpZk-66">
          <mxGeometry relative="1" as="geometry" />
        </mxCell>
        <mxCell id="GWNYYibfc6u7Uzu7YpZk-64" value="" style="verticalLabelPosition=bottom;verticalAlign=top;html=1;shape=mxgraph.flowchart.or;" vertex="1" parent="1">
          <mxGeometry x="-98.75" y="197" width="32.5" height="30" as="geometry" />
        </mxCell>
        <mxCell id="GWNYYibfc6u7Uzu7YpZk-77" value="YES" style="edgeStyle=orthogonalEdgeStyle;rounded=0;orthogonalLoop=1;jettySize=auto;html=1;exitX=0.5;exitY=1;exitDx=0;exitDy=0;exitPerimeter=0;entryX=0.5;entryY=0;entryDx=0;entryDy=0;" edge="1" parent="1" source="GWNYYibfc6u7Uzu7YpZk-66" target="GWNYYibfc6u7Uzu7YpZk-69">
          <mxGeometry relative="1" as="geometry" />
        </mxCell>
        <mxCell id="GWNYYibfc6u7Uzu7YpZk-159" value="NO" style="edgeStyle=orthogonalEdgeStyle;rounded=0;orthogonalLoop=1;jettySize=auto;html=1;exitX=1;exitY=0.5;exitDx=0;exitDy=0;exitPerimeter=0;entryX=0.5;entryY=0;entryDx=0;entryDy=0;entryPerimeter=0;" edge="1" parent="1" source="GWNYYibfc6u7Uzu7YpZk-66" target="GWNYYibfc6u7Uzu7YpZk-149">
          <mxGeometry relative="1" as="geometry" />
        </mxCell>
        <mxCell id="GWNYYibfc6u7Uzu7YpZk-66" value="New user input?" style="strokeWidth=2;html=1;shape=mxgraph.flowchart.decision;whiteSpace=wrap;" vertex="1" parent="1">
          <mxGeometry x="-160" y="267" width="155" height="50" as="geometry" />
        </mxCell>
        <mxCell id="GWNYYibfc6u7Uzu7YpZk-76" style="edgeStyle=orthogonalEdgeStyle;rounded=0;orthogonalLoop=1;jettySize=auto;html=1;exitX=0.5;exitY=1;exitDx=0;exitDy=0;entryX=0.5;entryY=0;entryDx=0;entryDy=0;entryPerimeter=0;" edge="1" parent="1" source="GWNYYibfc6u7Uzu7YpZk-69" target="GWNYYibfc6u7Uzu7YpZk-74">
          <mxGeometry relative="1" as="geometry" />
        </mxCell>
        <mxCell id="GWNYYibfc6u7Uzu7YpZk-120" value="API getConfig" style="edgeStyle=entityRelationEdgeStyle;rounded=0;orthogonalLoop=1;jettySize=auto;html=1;fillColor=#60a917;strokeColor=#2D7600;" edge="1" parent="1">
          <mxGeometry relative="1" as="geometry">
            <mxPoint x="490" y="295" as="targetPoint" />
            <mxPoint x="360" y="460" as="sourcePoint" />
          </mxGeometry>
        </mxCell>
        <mxCell id="GWNYYibfc6u7Uzu7YpZk-69" value="(API call)&lt;br&gt;request current Configuration for Server" style="rounded=1;whiteSpace=wrap;html=1;absoluteArcSize=1;arcSize=14;strokeWidth=2;fillColor=#008a00;fontColor=#ffffff;strokeColor=#005700;" vertex="1" parent="1">
          <mxGeometry x="-160" y="377" width="155" height="60" as="geometry" />
        </mxCell>
        <mxCell id="GWNYYibfc6u7Uzu7YpZk-80" style="edgeStyle=orthogonalEdgeStyle;rounded=0;orthogonalLoop=1;jettySize=auto;html=1;exitX=0.5;exitY=1;exitDx=0;exitDy=0;entryX=0;entryY=0.5;entryDx=0;entryDy=0;entryPerimeter=0;exitPerimeter=0;" edge="1" parent="1" source="GWNYYibfc6u7Uzu7YpZk-165" target="GWNYYibfc6u7Uzu7YpZk-64">
          <mxGeometry relative="1" as="geometry">
            <Array as="points">
              <mxPoint x="-83" y="887" />
              <mxPoint x="-210" y="887" />
              <mxPoint x="-210" y="212" />
            </Array>
          </mxGeometry>
        </mxCell>
        <mxCell id="GWNYYibfc6u7Uzu7YpZk-166" style="edgeStyle=none;rounded=0;orthogonalLoop=1;jettySize=auto;html=1;exitX=0.5;exitY=1;exitDx=0;exitDy=0;entryX=0.5;entryY=0;entryDx=0;entryDy=0;entryPerimeter=0;" edge="1" parent="1" source="GWNYYibfc6u7Uzu7YpZk-70" target="GWNYYibfc6u7Uzu7YpZk-165">
          <mxGeometry relative="1" as="geometry" />
        </mxCell>
        <mxCell id="GWNYYibfc6u7Uzu7YpZk-70" value="(API call)&lt;br&gt;send new configuration to server" style="rounded=1;whiteSpace=wrap;html=1;absoluteArcSize=1;arcSize=14;strokeWidth=2;fillColor=#008a00;fontColor=#ffffff;strokeColor=#005700;" vertex="1" parent="1">
          <mxGeometry x="-160" y="727" width="155" height="60" as="geometry" />
        </mxCell>
        <mxCell id="GWNYYibfc6u7Uzu7YpZk-79" style="edgeStyle=orthogonalEdgeStyle;rounded=0;orthogonalLoop=1;jettySize=auto;html=1;exitX=0.5;exitY=1;exitDx=0;exitDy=0;" edge="1" parent="1" source="GWNYYibfc6u7Uzu7YpZk-71" target="GWNYYibfc6u7Uzu7YpZk-70">
          <mxGeometry relative="1" as="geometry" />
        </mxCell>
        <mxCell id="GWNYYibfc6u7Uzu7YpZk-71" value="Update configuration based on user input and update GUI" style="rounded=1;whiteSpace=wrap;html=1;absoluteArcSize=1;arcSize=14;strokeWidth=2;" vertex="1" parent="1">
          <mxGeometry x="-160" y="617" width="155" height="60" as="geometry" />
        </mxCell>
        <mxCell id="GWNYYibfc6u7Uzu7YpZk-78" value="YES" style="edgeStyle=orthogonalEdgeStyle;rounded=0;orthogonalLoop=1;jettySize=auto;html=1;exitX=0.5;exitY=1;exitDx=0;exitDy=0;exitPerimeter=0;entryX=0.5;entryY=0;entryDx=0;entryDy=0;" edge="1" parent="1" source="GWNYYibfc6u7Uzu7YpZk-72" target="GWNYYibfc6u7Uzu7YpZk-71">
          <mxGeometry relative="1" as="geometry" />
        </mxCell>
        <mxCell id="GWNYYibfc6u7Uzu7YpZk-72" value="received &lt;br&gt;data?" style="strokeWidth=2;html=1;shape=mxgraph.flowchart.decision;whiteSpace=wrap;" vertex="1" parent="1">
          <mxGeometry x="-160" y="527" width="155" height="50" as="geometry" />
        </mxCell>
        <mxCell id="GWNYYibfc6u7Uzu7YpZk-73" value="" style="edgeStyle=orthogonalEdgeStyle;rounded=0;orthogonalLoop=1;jettySize=auto;html=1;exitX=0.5;exitY=1;exitDx=0;exitDy=0;exitPerimeter=0;entryX=0.5;entryY=0;entryDx=0;entryDy=0;entryPerimeter=0;" edge="1" parent="1" source="GWNYYibfc6u7Uzu7YpZk-74" target="GWNYYibfc6u7Uzu7YpZk-72">
          <mxGeometry relative="1" as="geometry">
            <mxPoint x="56.25" y="539.48" as="targetPoint" />
          </mxGeometry>
        </mxCell>
        <mxCell id="GWNYYibfc6u7Uzu7YpZk-74" value="" style="verticalLabelPosition=bottom;verticalAlign=top;html=1;shape=mxgraph.flowchart.or;" vertex="1" parent="1">
          <mxGeometry x="-98.75" y="467" width="32.5" height="30" as="geometry" />
        </mxCell>
        <mxCell id="GWNYYibfc6u7Uzu7YpZk-75" value="No" style="edgeStyle=orthogonalEdgeStyle;rounded=0;orthogonalLoop=1;jettySize=auto;html=1;exitX=1;exitY=0.5;exitDx=0;exitDy=0;exitPerimeter=0;entryX=1;entryY=0.5;entryDx=0;entryDy=0;entryPerimeter=0;" edge="1" parent="1" target="GWNYYibfc6u7Uzu7YpZk-74" source="GWNYYibfc6u7Uzu7YpZk-72">
          <mxGeometry x="-0.3109" relative="1" as="geometry">
            <mxPoint x="131.25" y="574.48" as="sourcePoint" />
            <mxPoint as="offset" />
          </mxGeometry>
        </mxCell>
        <mxCell id="GWNYYibfc6u7Uzu7YpZk-81" style="edgeStyle=orthogonalEdgeStyle;rounded=0;orthogonalLoop=1;jettySize=auto;html=1;exitX=0.5;exitY=1;exitDx=0;exitDy=0;exitPerimeter=0;entryX=0.5;entryY=0;entryDx=0;entryDy=0;entryPerimeter=0;" edge="1" parent="1" source="GWNYYibfc6u7Uzu7YpZk-82" target="GWNYYibfc6u7Uzu7YpZk-84">
          <mxGeometry relative="1" as="geometry" />
        </mxCell>
        <mxCell id="GWNYYibfc6u7Uzu7YpZk-146" style="edgeStyle=orthogonalEdgeStyle;rounded=0;orthogonalLoop=1;jettySize=auto;html=1;exitX=0.5;exitY=1;exitDx=0;exitDy=0;exitPerimeter=0;entryX=0.5;entryY=0;entryDx=0;entryDy=0;entryPerimeter=0;" edge="1" parent="1" source="GWNYYibfc6u7Uzu7YpZk-82" target="GWNYYibfc6u7Uzu7YpZk-143">
          <mxGeometry relative="1" as="geometry">
            <Array as="points">
              <mxPoint x="648" y="160" />
              <mxPoint x="1138" y="160" />
            </Array>
          </mxGeometry>
        </mxCell>
        <mxCell id="GWNYYibfc6u7Uzu7YpZk-82" value="Server&lt;br&gt;Start" style="strokeWidth=2;html=1;shape=mxgraph.flowchart.start_1;whiteSpace=wrap;" vertex="1" parent="1">
          <mxGeometry x="567.5" y="80" width="160" height="60" as="geometry" />
        </mxCell>
        <mxCell id="GWNYYibfc6u7Uzu7YpZk-83" style="edgeStyle=orthogonalEdgeStyle;rounded=0;orthogonalLoop=1;jettySize=auto;html=1;exitX=0.5;exitY=1;exitDx=0;exitDy=0;exitPerimeter=0;entryX=0.5;entryY=0;entryDx=0;entryDy=0;entryPerimeter=0;" edge="1" parent="1" source="GWNYYibfc6u7Uzu7YpZk-84" target="GWNYYibfc6u7Uzu7YpZk-87">
          <mxGeometry relative="1" as="geometry" />
        </mxCell>
        <mxCell id="GWNYYibfc6u7Uzu7YpZk-84" value="" style="verticalLabelPosition=bottom;verticalAlign=top;html=1;shape=mxgraph.flowchart.or;aspect=fixed;" vertex="1" parent="1">
          <mxGeometry x="631.25" y="190" width="32" height="32" as="geometry" />
        </mxCell>
        <mxCell id="GWNYYibfc6u7Uzu7YpZk-86" value="YES" style="edgeStyle=orthogonalEdgeStyle;rounded=0;orthogonalLoop=1;jettySize=auto;html=1;exitX=0.5;exitY=1;exitDx=0;exitDy=0;exitPerimeter=0;entryX=0.5;entryY=0;entryDx=0;entryDy=0;" edge="1" parent="1" source="GWNYYibfc6u7Uzu7YpZk-87" target="GWNYYibfc6u7Uzu7YpZk-89">
          <mxGeometry relative="1" as="geometry" />
        </mxCell>
        <mxCell id="GWNYYibfc6u7Uzu7YpZk-115" value="NO" style="edgeStyle=orthogonalEdgeStyle;rounded=0;orthogonalLoop=1;jettySize=auto;html=1;exitX=1;exitY=0.5;exitDx=0;exitDy=0;exitPerimeter=0;entryX=0.5;entryY=0;entryDx=0;entryDy=0;entryPerimeter=0;" edge="1" parent="1" source="GWNYYibfc6u7Uzu7YpZk-87" target="GWNYYibfc6u7Uzu7YpZk-104">
          <mxGeometry x="-0.5476" relative="1" as="geometry">
            <mxPoint x="730" y="530" as="targetPoint" />
            <mxPoint as="offset" />
          </mxGeometry>
        </mxCell>
        <mxCell id="GWNYYibfc6u7Uzu7YpZk-87" value="GET&lt;br&gt;API Request ?" style="strokeWidth=2;html=1;shape=mxgraph.flowchart.decision;whiteSpace=wrap;fillColor=#008a00;fontColor=#ffffff;strokeColor=#005700;" vertex="1" parent="1">
          <mxGeometry x="572.5" y="260" width="150" height="70" as="geometry" />
        </mxCell>
        <mxCell id="GWNYYibfc6u7Uzu7YpZk-117" style="edgeStyle=orthogonalEdgeStyle;rounded=0;orthogonalLoop=1;jettySize=auto;html=1;exitX=0.5;exitY=1;exitDx=0;exitDy=0;entryX=0.5;entryY=0;entryDx=0;entryDy=0;entryPerimeter=0;" edge="1" parent="1" source="GWNYYibfc6u7Uzu7YpZk-89" target="GWNYYibfc6u7Uzu7YpZk-116">
          <mxGeometry relative="1" as="geometry" />
        </mxCell>
        <mxCell id="GWNYYibfc6u7Uzu7YpZk-89" value="send current configuration" style="rounded=1;whiteSpace=wrap;html=1;absoluteArcSize=1;arcSize=14;strokeWidth=2;" vertex="1" parent="1">
          <mxGeometry x="570" y="380" width="155" height="50" as="geometry" />
        </mxCell>
        <mxCell id="GWNYYibfc6u7Uzu7YpZk-103" value="YES" style="edgeStyle=orthogonalEdgeStyle;rounded=0;orthogonalLoop=1;jettySize=auto;html=1;exitX=0.5;exitY=1;exitDx=0;exitDy=0;exitPerimeter=0;entryX=0.5;entryY=0;entryDx=0;entryDy=0;" edge="1" parent="1" source="GWNYYibfc6u7Uzu7YpZk-104" target="GWNYYibfc6u7Uzu7YpZk-105">
          <mxGeometry relative="1" as="geometry" />
        </mxCell>
        <mxCell id="GWNYYibfc6u7Uzu7YpZk-131" value="NO" style="edgeStyle=orthogonalEdgeStyle;rounded=0;orthogonalLoop=1;jettySize=auto;html=1;exitX=1;exitY=0.5;exitDx=0;exitDy=0;exitPerimeter=0;entryX=1;entryY=0.5;entryDx=0;entryDy=0;entryPerimeter=0;" edge="1" parent="1" source="GWNYYibfc6u7Uzu7YpZk-104" target="GWNYYibfc6u7Uzu7YpZk-84">
          <mxGeometry x="-0.7071" relative="1" as="geometry">
            <Array as="points">
              <mxPoint x="970" y="415" />
              <mxPoint x="970" y="206" />
            </Array>
            <mxPoint as="offset" />
          </mxGeometry>
        </mxCell>
        <mxCell id="GWNYYibfc6u7Uzu7YpZk-104" value="POST&lt;br&gt;API Request ?" style="strokeWidth=2;html=1;shape=mxgraph.flowchart.decision;whiteSpace=wrap;fillColor=#008a00;fontColor=#ffffff;strokeColor=#005700;" vertex="1" parent="1">
          <mxGeometry x="772.5" y="380" width="150" height="70" as="geometry" />
        </mxCell>
        <mxCell id="GWNYYibfc6u7Uzu7YpZk-118" style="edgeStyle=orthogonalEdgeStyle;rounded=0;orthogonalLoop=1;jettySize=auto;html=1;exitX=0.5;exitY=1;exitDx=0;exitDy=0;entryX=1;entryY=0.5;entryDx=0;entryDy=0;entryPerimeter=0;" edge="1" parent="1" source="GWNYYibfc6u7Uzu7YpZk-105" target="GWNYYibfc6u7Uzu7YpZk-116">
          <mxGeometry relative="1" as="geometry" />
        </mxCell>
        <mxCell id="GWNYYibfc6u7Uzu7YpZk-105" value="update configuration with new data" style="rounded=1;whiteSpace=wrap;html=1;absoluteArcSize=1;arcSize=14;strokeWidth=2;" vertex="1" parent="1">
          <mxGeometry x="770" y="500" width="155" height="50" as="geometry" />
        </mxCell>
        <mxCell id="GWNYYibfc6u7Uzu7YpZk-119" style="edgeStyle=orthogonalEdgeStyle;rounded=0;orthogonalLoop=1;jettySize=auto;html=1;exitX=0.5;exitY=1;exitDx=0;exitDy=0;exitPerimeter=0;entryX=0;entryY=0.5;entryDx=0;entryDy=0;entryPerimeter=0;" edge="1" parent="1" source="GWNYYibfc6u7Uzu7YpZk-116" target="GWNYYibfc6u7Uzu7YpZk-84">
          <mxGeometry relative="1" as="geometry">
            <Array as="points">
              <mxPoint x="647" y="710" />
              <mxPoint x="540" y="710" />
              <mxPoint x="540" y="206" />
            </Array>
          </mxGeometry>
        </mxCell>
        <mxCell id="GWNYYibfc6u7Uzu7YpZk-116" value="" style="verticalLabelPosition=bottom;verticalAlign=top;html=1;shape=mxgraph.flowchart.summing_function;aspect=fixed;" vertex="1" parent="1">
          <mxGeometry x="631.5" y="580" width="32" height="32" as="geometry" />
        </mxCell>
        <mxCell id="GWNYYibfc6u7Uzu7YpZk-130" value="modified&lt;br&gt;configuration &lt;br&gt;as JSON" style="edgeStyle=entityRelationEdgeStyle;rounded=0;orthogonalLoop=1;jettySize=auto;html=1;fillColor=#60a917;strokeColor=#2D7600;" edge="1" parent="1">
          <mxGeometry relative="1" as="geometry">
            <mxPoint x="480" y="530" as="targetPoint" />
            <mxPoint x="360" y="730" as="sourcePoint" />
            <mxPoint y="1" as="offset" />
          </mxGeometry>
        </mxCell>
        <mxCell id="GWNYYibfc6u7Uzu7YpZk-132" value="configuration&lt;br&gt;&amp;nbsp;as JSON" style="edgeStyle=entityRelationEdgeStyle;rounded=0;orthogonalLoop=1;jettySize=auto;html=1;startArrow=classic;startFill=1;endArrow=none;endFill=0;fillColor=#60a917;strokeColor=#2D7600;" edge="1" parent="1">
          <mxGeometry x="0.1415" y="1" relative="1" as="geometry">
            <mxPoint x="490" y="400" as="targetPoint" />
            <mxPoint x="360" y="600" as="sourcePoint" />
            <mxPoint as="offset" />
          </mxGeometry>
        </mxCell>
        <mxCell id="GWNYYibfc6u7Uzu7YpZk-136" value="Client" style="text;html=1;strokeColor=none;fillColor=none;align=center;verticalAlign=middle;whiteSpace=wrap;rounded=0;fontStyle=1;fontSize=16;" vertex="1" parent="1">
          <mxGeometry x="-260" y="27" width="60" height="30" as="geometry" />
        </mxCell>
        <mxCell id="GWNYYibfc6u7Uzu7YpZk-138" value="Server" style="text;html=1;strokeColor=none;fillColor=none;align=center;verticalAlign=middle;whiteSpace=wrap;rounded=0;fontStyle=1;fontSize=16;" vertex="1" parent="1">
          <mxGeometry x="500" y="27" width="60" height="30" as="geometry" />
        </mxCell>
        <mxCell id="GWNYYibfc6u7Uzu7YpZk-145" style="edgeStyle=orthogonalEdgeStyle;rounded=0;orthogonalLoop=1;jettySize=auto;html=1;exitX=0.5;exitY=1;exitDx=0;exitDy=0;entryX=0;entryY=0.5;entryDx=0;entryDy=0;entryPerimeter=0;" edge="1" parent="1" source="GWNYYibfc6u7Uzu7YpZk-140" target="GWNYYibfc6u7Uzu7YpZk-143">
          <mxGeometry relative="1" as="geometry">
            <Array as="points">
              <mxPoint x="1138" y="470" />
              <mxPoint x="1030" y="470" />
              <mxPoint x="1030" y="206" />
            </Array>
          </mxGeometry>
        </mxCell>
        <mxCell id="GWNYYibfc6u7Uzu7YpZk-140" value="write current configuration into shift registers via I2C" style="rounded=1;whiteSpace=wrap;html=1;absoluteArcSize=1;arcSize=14;strokeWidth=2;" vertex="1" parent="1">
          <mxGeometry x="1060" y="380" width="155" height="50" as="geometry" />
        </mxCell>
        <mxCell id="GWNYYibfc6u7Uzu7YpZk-142" value="YES" style="edgeStyle=none;rounded=0;orthogonalLoop=1;jettySize=auto;html=1;exitX=0.5;exitY=1;exitDx=0;exitDy=0;exitPerimeter=0;entryX=0.5;entryY=0;entryDx=0;entryDy=0;" edge="1" parent="1" source="GWNYYibfc6u7Uzu7YpZk-141" target="GWNYYibfc6u7Uzu7YpZk-140">
          <mxGeometry relative="1" as="geometry" />
        </mxCell>
        <mxCell id="GWNYYibfc6u7Uzu7YpZk-147" value="NO" style="edgeStyle=orthogonalEdgeStyle;rounded=0;orthogonalLoop=1;jettySize=auto;html=1;exitX=1;exitY=0.5;exitDx=0;exitDy=0;exitPerimeter=0;entryX=1;entryY=0.5;entryDx=0;entryDy=0;entryPerimeter=0;" edge="1" parent="1" source="GWNYYibfc6u7Uzu7YpZk-141" target="GWNYYibfc6u7Uzu7YpZk-143">
          <mxGeometry x="-0.382" relative="1" as="geometry">
            <mxPoint as="offset" />
          </mxGeometry>
        </mxCell>
        <mxCell id="GWNYYibfc6u7Uzu7YpZk-141" value="Update interval&lt;br&gt;reached?" style="strokeWidth=2;html=1;shape=mxgraph.flowchart.decision;whiteSpace=wrap;fillColor=#008a00;fontColor=#ffffff;strokeColor=#005700;" vertex="1" parent="1">
          <mxGeometry x="1062.5" y="250" width="150" height="70" as="geometry" />
        </mxCell>
        <mxCell id="GWNYYibfc6u7Uzu7YpZk-144" style="edgeStyle=none;rounded=0;orthogonalLoop=1;jettySize=auto;html=1;exitX=0.5;exitY=1;exitDx=0;exitDy=0;exitPerimeter=0;entryX=0.5;entryY=0;entryDx=0;entryDy=0;entryPerimeter=0;" edge="1" parent="1" source="GWNYYibfc6u7Uzu7YpZk-143" target="GWNYYibfc6u7Uzu7YpZk-141">
          <mxGeometry relative="1" as="geometry" />
        </mxCell>
        <mxCell id="GWNYYibfc6u7Uzu7YpZk-143" value="" style="verticalLabelPosition=bottom;verticalAlign=top;html=1;shape=mxgraph.flowchart.or;aspect=fixed;" vertex="1" parent="1">
          <mxGeometry x="1121.5" y="190" width="32" height="32" as="geometry" />
        </mxCell>
        <mxCell id="GWNYYibfc6u7Uzu7YpZk-148" value="" style="whiteSpace=wrap;html=1;fillColor=none;dashed=1;imageAspect=1;" vertex="1" parent="1">
          <mxGeometry x="500" y="57" width="770" height="673" as="geometry" />
        </mxCell>
        <mxCell id="GWNYYibfc6u7Uzu7YpZk-160" value="NO" style="edgeStyle=orthogonalEdgeStyle;rounded=0;orthogonalLoop=1;jettySize=auto;html=1;exitX=1;exitY=0.5;exitDx=0;exitDy=0;exitPerimeter=0;entryX=1;entryY=0.5;entryDx=0;entryDy=0;entryPerimeter=0;" edge="1" parent="1" source="GWNYYibfc6u7Uzu7YpZk-149" target="GWNYYibfc6u7Uzu7YpZk-64">
          <mxGeometry relative="1" as="geometry">
            <Array as="points">
              <mxPoint x="290" y="372" />
              <mxPoint x="290" y="212" />
            </Array>
          </mxGeometry>
        </mxCell>
        <mxCell id="GWNYYibfc6u7Uzu7YpZk-161" value="YES" style="edgeStyle=none;rounded=0;orthogonalLoop=1;jettySize=auto;html=1;exitX=0.5;exitY=1;exitDx=0;exitDy=0;exitPerimeter=0;entryX=0.5;entryY=0;entryDx=0;entryDy=0;" edge="1" parent="1" source="GWNYYibfc6u7Uzu7YpZk-149" target="GWNYYibfc6u7Uzu7YpZk-150">
          <mxGeometry relative="1" as="geometry" />
        </mxCell>
        <mxCell id="GWNYYibfc6u7Uzu7YpZk-149" value="Refresh request or &lt;br&gt;automatic update &lt;br&gt;activated?" style="strokeWidth=2;html=1;shape=mxgraph.flowchart.decision;whiteSpace=wrap;" vertex="1" parent="1">
          <mxGeometry x="52.5" y="327" width="190" height="90" as="geometry" />
        </mxCell>
        <mxCell id="GWNYYibfc6u7Uzu7YpZk-150" value="(API call)&lt;br&gt;request current Configuration for Server" style="rounded=1;whiteSpace=wrap;html=1;absoluteArcSize=1;arcSize=14;strokeWidth=2;fillColor=#008a00;fontColor=#ffffff;strokeColor=#005700;" vertex="1" parent="1">
          <mxGeometry x="70" y="457" width="155" height="60" as="geometry" />
        </mxCell>
        <mxCell id="GWNYYibfc6u7Uzu7YpZk-154" style="edgeStyle=orthogonalEdgeStyle;rounded=0;orthogonalLoop=1;jettySize=auto;html=1;exitX=0.5;exitY=1;exitDx=0;exitDy=0;entryX=0.5;entryY=0;entryDx=0;entryDy=0;entryPerimeter=0;" edge="1" parent="1" target="GWNYYibfc6u7Uzu7YpZk-157" source="GWNYYibfc6u7Uzu7YpZk-150">
          <mxGeometry relative="1" as="geometry">
            <mxPoint x="148" y="517" as="sourcePoint" />
          </mxGeometry>
        </mxCell>
        <mxCell id="GWNYYibfc6u7Uzu7YpZk-163" style="edgeStyle=none;rounded=0;orthogonalLoop=1;jettySize=auto;html=1;exitX=0.5;exitY=1;exitDx=0;exitDy=0;exitPerimeter=0;" edge="1" parent="1" source="GWNYYibfc6u7Uzu7YpZk-155" target="GWNYYibfc6u7Uzu7YpZk-162">
          <mxGeometry relative="1" as="geometry" />
        </mxCell>
        <mxCell id="GWNYYibfc6u7Uzu7YpZk-155" value="received &lt;br&gt;data?" style="strokeWidth=2;html=1;shape=mxgraph.flowchart.decision;whiteSpace=wrap;" vertex="1" parent="1">
          <mxGeometry x="70" y="607" width="155" height="50" as="geometry" />
        </mxCell>
        <mxCell id="GWNYYibfc6u7Uzu7YpZk-156" value="" style="edgeStyle=orthogonalEdgeStyle;rounded=0;orthogonalLoop=1;jettySize=auto;html=1;exitX=0.5;exitY=1;exitDx=0;exitDy=0;exitPerimeter=0;entryX=0.5;entryY=0;entryDx=0;entryDy=0;entryPerimeter=0;" edge="1" parent="1" source="GWNYYibfc6u7Uzu7YpZk-157" target="GWNYYibfc6u7Uzu7YpZk-155">
          <mxGeometry relative="1" as="geometry">
            <mxPoint x="286.25" y="559.48" as="targetPoint" />
          </mxGeometry>
        </mxCell>
        <mxCell id="GWNYYibfc6u7Uzu7YpZk-157" value="" style="verticalLabelPosition=bottom;verticalAlign=top;html=1;shape=mxgraph.flowchart.or;" vertex="1" parent="1">
          <mxGeometry x="131.25" y="547" width="32.5" height="30" as="geometry" />
        </mxCell>
        <mxCell id="GWNYYibfc6u7Uzu7YpZk-158" value="No" style="edgeStyle=orthogonalEdgeStyle;rounded=0;orthogonalLoop=1;jettySize=auto;html=1;exitX=1;exitY=0.5;exitDx=0;exitDy=0;exitPerimeter=0;entryX=1;entryY=0.5;entryDx=0;entryDy=0;entryPerimeter=0;" edge="1" parent="1" source="GWNYYibfc6u7Uzu7YpZk-155" target="GWNYYibfc6u7Uzu7YpZk-157">
          <mxGeometry x="-0.3109" relative="1" as="geometry">
            <mxPoint x="361.25" y="654.48" as="sourcePoint" />
            <mxPoint as="offset" />
          </mxGeometry>
        </mxCell>
        <mxCell id="GWNYYibfc6u7Uzu7YpZk-164" style="edgeStyle=orthogonalEdgeStyle;rounded=0;orthogonalLoop=1;jettySize=auto;html=1;exitX=0.5;exitY=1;exitDx=0;exitDy=0;entryX=1;entryY=0.5;entryDx=0;entryDy=0;entryPerimeter=0;" edge="1" parent="1" source="GWNYYibfc6u7Uzu7YpZk-162" target="GWNYYibfc6u7Uzu7YpZk-165">
          <mxGeometry relative="1" as="geometry" />
        </mxCell>
        <mxCell id="GWNYYibfc6u7Uzu7YpZk-162" value="Update GUI" style="rounded=1;whiteSpace=wrap;html=1;absoluteArcSize=1;arcSize=14;strokeWidth=2;" vertex="1" parent="1">
          <mxGeometry x="70" y="697" width="155" height="60" as="geometry" />
        </mxCell>
        <mxCell id="GWNYYibfc6u7Uzu7YpZk-165" value="" style="verticalLabelPosition=bottom;verticalAlign=top;html=1;shape=mxgraph.flowchart.summing_function;" vertex="1" parent="1">
          <mxGeometry x="-98.75" y="824" width="32" height="32" as="geometry" />
        </mxCell>
      </root>
    </mxGraphModel>
  </diagram>
</mxfile>
